<?xml version="1.0" standalone="no"?>
<!DOCTYPE svg PUBLIC "-//W3C//DTD SVG 20010904//EN"
 "http://www.w3.org/TR/2001/REC-SVG-20010904/DTD/svg10.dtd">
<svg version="1.0" xmlns="http://www.w3.org/2000/svg"
 width="800.000000pt" height="600.000000pt" viewBox="0 0 800.000000 600.000000"
 preserveAspectRatio="xMidYMid meet">

<g transform="translate(0.000000,600.000000) scale(0.100000,-0.100000)"
fill="#000000" stroke="none">
<path d="M3695 5320 c-931 -96 -1719 -742 -1994 -1635 -119 -388 -132 -833
-35 -1228 15 -59 25 -109 23 -111 -2 -2 -119 -14 -259 -26 -265 -24 -300 -30
-300 -54 0 -22 21 -25 101 -16 170 19 462 41 475 36 8 -3 14 -12 14 -20 0 -18
-4 -18 -330 -46 -135 -12 -249 -25 -254 -30 -5 -5 -6 -16 -3 -24 5 -14 47 -16
318 -18 l311 -3 48 -106 c58 -131 157 -297 258 -432 94 -127 326 -360 453
-455 528 -393 1165 -546 1809 -436 284 49 584 165 839 325 368 232 698 609
872 999 l47 105 384 5 c375 5 383 5 383 25 0 18 -10 21 -110 31 -60 7 -220 20
-355 30 -135 9 -249 20 -253 24 -4 4 -5 14 -1 23 7 19 -22 21 434 -18 146 -12
271 -20 278 -18 20 8 14 33 -10 42 -24 8 -38 10 -432 41 -131 11 -240 21 -242
23 -2 2 7 48 21 103 38 154 55 284 62 469 23 644 -208 1239 -661 1702 -358
367 -811 600 -1321 678 -122 19 -447 27 -570 15z m616 -129 c680 -123 1260
-549 1583 -1161 245 -466 314 -1020 190 -1540 -13 -58 -28 -111 -33 -118 -6
-11 -38 -11 -167 -3 -87 6 -224 13 -304 16 -80 3 -180 8 -222 11 l-78 6 -2
721 c-3 820 4 759 -88 693 l-50 -36 0 124 c0 96 -3 126 -15 136 -17 14 -6 21
-201 -121 -93 -69 -165 -128 -172 -144 -9 -19 -12 -195 -12 -690 l0 -665 -732
0 c-403 0 -784 -3 -845 -7 l-113 -6 0 567 c0 461 -3 573 -14 600 -8 18 -35 48
-60 66 -41 30 -46 38 -46 71 0 21 -5 50 -12 64 -7 15 -79 75 -172 142 -89 64
-166 120 -172 125 -6 5 -19 6 -28 2 -15 -6 -16 -78 -16 -830 l0 -824 -35 0
c-56 0 -596 -29 -646 -35 l-47 -5 -22 82 c-56 206 -64 276 -64 563 -1 239 2
284 21 392 84 450 279 832 592 1156 357 369 810 597 1326 666 39 5 176 8 305
6 185 -2 260 -7 351 -24z m-1578 -1330 c120 -89 157 -124 143 -139 -3 -2 -48
28 -101 66 -54 40 -103 68 -111 65 -12 -4 -14 -117 -14 -729 l0 -724 -35 0
-35 0 0 780 c0 512 3 780 10 780 5 0 70 -44 143 -99z m2347 -13 l0 -113 -71
-50 c-39 -27 -84 -65 -100 -83 l-29 -33 0 -579 0 -580 -45 0 -45 0 0 668 0
669 23 22 c31 28 250 189 260 190 4 1 7 -50 7 -111z m-2246 -169 c68 -49 132
-99 142 -111 18 -19 19 -57 19 -917 l0 -896 -145 0 -145 0 -3 1008 c-1 554 0
1007 3 1007 3 0 61 -41 129 -91z m2394 -916 l-3 -1008 -145 0 -145 0 -3 885
c-1 487 0 895 3 907 3 14 56 59 143 122 75 55 140 100 145 101 4 0 6 -453 5
-1007z m-555 -400 c52 -4 67 -9 67 -22 0 -15 -76 -16 -845 -16 -796 0 -845 1
-845 17 0 16 15 18 133 21 271 6 1424 7 1490 0z m207 -23 c0 -17 -7 -20 -45
-20 -38 0 -45 3 -45 20 0 17 7 20 45 20 38 0 45 -3 45 -20z m615 -5 c242 -9
523 -29 531 -38 4 -4 3 -12 -3 -18 -8 -8 -73 -8 -230 0 -120 6 -284 14 -365
17 -147 7 -148 7 -148 31 0 19 4 23 23 19 12 -3 99 -8 192 -11z m-2965 -14 c0
-24 -20 -27 -335 -41 -126 -6 -260 -13 -296 -17 -57 -5 -67 -3 -73 12 -3 10
-5 19 -4 20 2 2 120 10 263 19 143 9 280 18 305 19 127 9 140 8 140 -12z m120
-1 c0 -16 -7 -20 -35 -20 -28 0 -35 4 -35 20 0 16 7 20 35 20 28 0 35 -4 35
-20z m1930 -49 l295 -6 3 -32 3 -33 -915 0 -916 0 0 30 c0 17 1 31 3 32 15 12
1092 18 1527 9z m-1930 -46 l0 -25 -407 0 c-223 0 -404 2 -402 4 2 2 137 11
299 20 162 9 318 18 345 19 157 10 165 9 165 -18z m3160 -1 c146 -8 276 -16
290 -18 14 -2 -165 -4 -397 -5 l-423 -1 0 26 0 27 133 -7 c72 -4 251 -13 397
-22z m-3280 -148 l0 -73 -100 -12 c-56 -6 -185 -11 -289 -11 l-188 0 -36 78
-35 77 156 5 c87 3 232 7 325 8 l167 2 0 -74z m118 -28 l3 -98 -36 0 -35 0 0
93 c0 52 3 97 7 101 4 4 19 6 33 4 25 -3 25 -4 28 -100z m2087 27 l0 -70 -85
-10 c-103 -11 -1486 -13 -1552 -2 l-48 8 0 75 0 74 843 -2 842 -3 0 -70z m145
-25 l0 -100 -45 0 -45 0 0 100 0 100 45 0 45 0 0 -100z m912 91 l178 -6 -37
-77 -36 -78 -271 0 c-149 0 -288 3 -308 6 l-38 7 0 78 0 79 168 -1 c92 -1 247
-4 344 -8z m-3262 -205 c0 -8 2 -21 5 -28 5 -11 -10 -12 -87 -5 -51 5 -97 13
-102 17 -4 5 23 11 60 15 38 3 76 8 84 9 32 7 40 6 40 -8z m2210 -11 c0 -14 5
-25 12 -25 6 0 9 -3 6 -6 -8 -7 -239 16 -257 26 -10 5 11 10 55 15 38 3 76 8
84 9 8 2 34 4 58 5 38 1 42 -1 42 -24z m-1555 7 c51 -10 31 -18 -64 -28 -68
-6 -71 -6 -71 15 0 19 6 21 48 20 26 0 65 -3 87 -7z m2163 -2 c38 0 15 -18
-28 -22 -34 -3 -40 -1 -40 15 0 15 5 18 23 13 12 -3 32 -6 45 -6z m-500 -37
c-10 -2 -26 -2 -35 0 -10 3 -2 5 17 5 19 0 27 -2 18 -5z m-2196 -150 l3 -38
189 -3 c205 -3 206 -3 206 52 l0 28 68 -7 c77 -8 136 -20 178 -35 26 -10 27
-13 11 -21 -120 -68 -805 -67 -926 0 -13 8 -12 11 13 21 38 14 170 38 218 39
36 1 37 0 40 -36z m2230 0 l3 -38 195 0 195 0 3 38 c3 33 6 37 31 37 45 0 201
-29 225 -42 20 -11 20 -12 -12 -25 -127 -52 -601 -62 -817 -18 -104 22 -119
30 -81 45 38 14 170 38 218 39 36 1 37 0 40 -36z m-321 -265 c0 -10 2 -10 6 0
7 18 23 15 23 -5 0 -15 2 -16 10 -3 11 18 23 8 14 -14 -6 -15 -60 -16 -619
-16 -496 0 -615 3 -624 13 -29 35 -1 37 601 37 463 0 588 -3 589 -12z m329 2
c0 -6 8 -5 20 2 17 11 22 10 29 -1 17 -27 1 -41 -50 -41 -36 0 -51 4 -56 16
-3 9 0 20 8 25 19 12 49 11 49 -1z m-986 -215 c4 -11 -3 -19 -20 -25 -37 -14
-884 -13 -864 1 12 9 11 10 -7 6 -25 -5 -33 17 -10 26 6 3 211 6 453 6 388 1
443 -1 448 -14z m485 1 c21 -25 -15 -32 -164 -35 -142 -2 -173 4 -162 33 5 14
28 16 160 16 122 0 157 -3 166 -14z m-540 -205 c7 -5 10 -14 7 -20 -8 -12
-277 -16 -289 -5 -3 3 -3 12 0 20 4 11 33 14 137 14 72 0 137 -4 145 -9z m810
-5 c7 -8 8 -17 3 -20 -13 -8 -544 -9 -565 -1 -13 6 -15 11 -7 21 17 20 552 20
569 0z"/>
<path d="M4339 4614 c-25 -7 -66 -32 -91 -54 -40 -35 -52 -40 -95 -40 -118 -1
-223 -104 -223 -220 l0 -40 393 2 392 3 3 69 c3 61 -1 77 -28 133 -64 130
-209 191 -351 147z m197 -62 c79 -41 134 -124 134 -203 l0 -39 -345 0 c-232 0
-345 3 -345 10 0 18 37 84 57 102 31 28 89 48 141 48 41 0 53 5 78 31 73 77
188 98 280 51z"/>
<path d="M3455 4291 c-22 -10 -53 -29 -70 -43 -21 -17 -46 -27 -82 -30 -89 -8
-162 -81 -171 -169 l-5 -49 329 2 329 3 -1 70 c-1 80 -15 114 -70 168 -67 64
-178 85 -259 48z m147 -41 c72 -20 137 -102 138 -172 l0 -28 -280 0 -280 0 11
27 c23 60 74 93 144 93 38 0 51 5 79 33 50 51 116 67 188 47z"/>
<path d="M3430 1459 c0 -5 11 -9 25 -9 14 0 25 2 25 4 0 2 -11 6 -25 8 -14 3
-25 1 -25 -3z"/>
</g>
</svg>
